<svg width="578" height="558" viewBox="0 0 578 558" fill="none" xmlns="http://www.w3.org/2000/svg">
<g clip-path="url(#clip0_1_18)">
<g clip-path="url(#clip1_1_18)">
<mask id="mask0_1_18" style="mask-type:luminance" maskUnits="userSpaceOnUse" x="-212" y="0" width="1001" height="560">
<path d="M789 0H-212V560H789V0Z" fill="white"/>
</mask>
<g mask="url(#mask0_1_18)">
<mask id="mask1_1_18" style="mask-type:luminance" maskUnits="userSpaceOnUse" x="-213" y="0" width="1004" height="559">
<path d="M790.666 0.674099H-212.419V558.901H790.666V0.674099Z" fill="white"/>
</mask>
<g mask="url(#mask1_1_18)">
<path d="M788.163 -248.681H-212.889V811.634H788.163V-248.681Z" fill="url(#paint0_linear_1_18)"/>
</g>
<mask id="mask2_1_18" style="mask-type:luminance" maskUnits="userSpaceOnUse" x="-214" y="-1" width="1002" height="561">
<path d="M787.381 -0.259386H-213.668V559.741H787.381V-0.259386Z" fill="white"/>
</mask>
<g mask="url(#mask2_1_18)">
<path d="M-18.3175 -3.73358C-36.1478 10.3701 -57.4714 9.07379 -77.5438 0.673828C-96.8334 -7.1558 -114.351 -18.7707 -131.243 -30.8002C-141.097 -37.8521 -154.86 -48.0151 -164.766 -55.2225L-163.202 -57.2966C-153.296 -49.8818 -139.845 -39.5632 -130.044 -32.4077C-113.412 -20.1707 -96.2602 -8.34843 -77.1262 -0.207658C-57.993 7.9331 -36.2526 10.0071 -18.3175 -3.73358ZM10.3565 -3.68173C-3.87646 13.222 -19.5171 25.9257 -42.978 23.7998C-71.444 21.259 -104.706 -2.59284 -127.594 -19.0818C-141.931 -29.4002 -155.955 -40.2373 -170.97 -49.7262L-172.378 -47.4966C-157.363 -38.2669 -143.234 -27.6891 -128.74 -17.4743C-105.488 -1.19284 -71.8084 22.3479 -43.082 24.5775C-19.4123 26.4442 -3.82406 13.5331 10.3565 -3.68173ZM34.8083 -3.68173C22.869 12.2368 9.57448 30.4368 -9.50708 38.059C-16.3459 40.6029 -23.6478 41.6807 -30.9347 41.222C-76.449 38.059 -129.105 -13.0669 -169.406 -35.0002C-172.899 -36.9707 -176.497 -38.7854 -180.094 -40.5484L-181.189 -38.1632C-177.644 -36.504 -174.046 -34.741 -170.605 -32.8225C-129.888 -11.1484 -76.9182 39.3034 -30.9864 42.1034C-23.5922 42.4639 -16.2044 41.2806 -9.29828 38.6293C9.83568 30.7998 22.9738 12.4442 34.8083 -3.68173ZM57.7476 -3.68173C46.3823 13.0146 34.8083 30.0738 19.5845 43.659C13.6934 48.7405 7.07197 53.1479 -0.330742 55.6368C-15.2941 60.7701 -31.6644 58.022 -46.0537 52.422C-63.6753 45.7331 -79.8899 36.0368 -95.5821 25.7701C-118.991 10.6293 -141.931 -7.25951 -167.164 -19.4966C-175.819 -23.5929 -185.099 -26.9113 -194.796 -26.9632V-24.3188C-188.644 -24.3707 -182.596 -22.9707 -176.809 -20.9484C-172.416 -19.3432 -168.131 -17.4553 -163.984 -15.2966C-129.209 2.38493 -98.9715 28.8293 -63.7801 45.9923C-46.9922 54.0812 -28.3274 61.496 -9.29828 58.5923C-4.59749 57.8716 -0.0187008 56.5107 4.30906 54.5479C4.93469 54.2887 5.76911 53.822 6.39473 53.5109C8.49292 52.4125 10.5293 51.2008 12.4946 49.8812C16.368 47.1747 20.0122 44.1572 23.3906 40.859C36.7375 27.5849 47.4248 11.9257 57.7476 -3.68173ZM79.9573 -3.68173C67.9664 15.1405 55.5579 33.9109 40.6477 50.6071C33.1402 58.7998 24.5895 66.422 14.3191 70.8812C-2.156 78.0889 -21.0288 75.0812 -37.295 68.7553C-73.2684 55.0146 -103.351 30.3849 -136.248 10.8887C-158.614 -2.07432 -186.663 -17.3188 -210.176 2.02197C-213.118 4.42103 -215.855 7.05712 -218.361 9.90345L-216.432 11.6146C-209.863 4.19974 -201.626 -2.54099 -191.616 -4.20025C-183.483 -5.70396 -175.089 -4.45951 -167.321 -1.86692C-142.661 6.99975 -121.285 22.6071 -99.3359 36.5034C-79.6811 49.1034 -59.7135 61.7035 -37.6602 69.8442C-21.1328 76.1182 -2.0512 78.9701 14.5795 71.5553C24.9547 66.9923 33.5046 59.2146 41.0121 50.9182C55.8191 34.0664 68.0704 15.2442 79.9573 -3.68173ZM103.575 -6.63729C90.3325 14.5182 77.142 35.8812 61.6061 55.4812C51.2833 68.3405 39.7609 81.3556 24.1726 87.7333C0.190097 97.2736 -25.7209 87.1111 -47.5654 76.4293C-77.5954 61.496 -104.184 40.9627 -133.798 25.1998C-149.855 16.7998 -168.52 8.24422 -186.924 14.1034C-201.834 19.0293 -211.792 32.459 -220.395 44.7479L-218.205 46.1998C-211.271 36.0368 -203.763 25.822 -193.076 19.4442C-173.994 8.29602 -152.514 17.7331 -134.684 26.9109C-105.123 42.4664 -78.221 62.8961 -48.1394 77.622C-25.9814 88.3035 0.242488 98.3111 24.4855 88.459C40.1785 81.9257 51.7002 68.7553 61.9706 55.7923C77.4032 36.0368 90.4889 14.622 103.575 -6.63729ZM123.543 -3.68173C109.518 18.3553 94.8159 43.0368 79.0188 63.7775C68.1752 77.8812 56.7576 92.4513 40.8557 101.162C24.9547 109.874 5.66432 108.889 -11.3316 103.444C-24.2093 99.4 -36.513 93.6958 -48.3998 87.3701C-78.2734 71.5553 -105.436 50.9701 -136.665 37.4887C-141.382 35.464 -146.266 33.8505 -151.263 32.6664C-160.178 30.5405 -169.823 30.5923 -178.53 33.8071L-180.146 34.4812C-181.213 34.93 -182.257 35.4319 -183.274 35.9849C-184.265 36.4516 -185.307 37.2293 -186.246 37.7479L-187.706 38.7331C-189.575 40.0479 -191.368 41.4675 -193.076 42.9849C-203.607 52.6293 -211.323 64.659 -218.935 76.5331L-216.745 77.9333C-212.074 70.2984 -207.01 62.9084 -201.574 55.7923C-197.889 50.9362 -193.656 46.5171 -188.957 42.622C-188.131 41.8947 -187.261 41.2193 -186.35 40.5998L-184.995 39.6664L-183.587 38.8368C-181.735 37.678 -179.78 36.6888 -177.748 35.8812C-169.719 32.9257 -160.856 32.7701 -152.514 34.5331C-149.529 35.1628 -146.587 35.9767 -143.703 36.9701C-114.038 47.859 -88.3358 66.7849 -60.9123 82.0812C-45.2193 91 -29.0055 99.1923 -11.6444 104.533C1.28495 108.526 15.3615 110.289 28.6044 106.815C51.0745 101.059 66.0371 81.6146 79.4364 64.0887C95.0771 43.1923 109.518 18.5109 123.543 -3.68173ZM145.387 -3.68173C124.429 28.622 104.565 63.6739 79.6445 93.1257C73.3366 100.489 66.4547 107.54 58.3732 113.037C46.0171 121.8 31.7325 124.703 16.8216 123.096C1.91057 121.489 -11.592 116.148 -24.9389 110.185C-56.2202 96.0291 -84.1129 75.7034 -115.029 60.822C-119.461 58.7479 -123.996 56.7257 -128.584 54.9627C-138.438 51.2293 -149.125 48.8442 -159.657 50.3998C-162.77 50.8648 -165.828 51.6467 -168.781 52.7331L-170.501 53.5109L-171.387 53.8738L-173.89 55.1701C-181.971 59.8368 -188.592 66.7331 -194.327 73.9923C-203.398 85.6069 -211.219 98.0513 -218.57 110.756L-216.276 112.051C-209.029 99.4 -201.365 86.9556 -192.45 75.4442C-187.237 68.8071 -181.449 62.5331 -174.307 58.022L-172.795 57.0887L-171.179 56.259L-170.397 55.8442L-169.615 55.4812L-167.946 54.7553C-164.602 53.5131 -161.118 52.6773 -157.571 52.2664C-147.926 51.2293 -138.281 53.459 -129.262 56.7775C-124.726 58.4887 -120.243 60.459 -115.811 62.5331C-84.8425 77.2071 -56.8458 97.4291 -25.4605 111.378C-12.0096 117.289 2.01537 122.578 16.7176 124.133C31.4197 125.689 46.3823 122.629 58.8424 113.711C66.924 108.111 73.8058 101.007 80.1661 93.5402C104.931 63.8812 124.533 28.7775 145.387 -3.68173ZM167.284 -3.68173C144.918 30.1257 118.016 77.1553 91.8442 107.8C87.7972 112.585 83.4436 117.105 78.8108 121.333C69.6869 129.578 59.1553 135.903 46.904 138.029C34.6519 140.156 20.4713 138.34 7.90641 134.503C-9.81989 129.162 -26.503 120.918 -42.7692 112.103C-66.0737 99.5556 -88.4922 84.9847 -113.1 74.9775C-128.376 68.5998 -146.623 64.9182 -162.055 72.7998C-175.923 80.0069 -185.255 93.1257 -193.962 105.57C-202.669 118.015 -210.958 132.429 -218.57 146.378L-216.224 147.622C-208.768 133.674 -200.896 119.985 -191.981 106.867C-183.9 95.1479 -175.297 83.0146 -162.785 75.5998C-147.666 66.8368 -129.209 70.3109 -113.83 76.6887C-98.4498 83.0667 -85.1029 90.1701 -71.2875 97.9479C-39.2243 115.578 9.73088 146.222 47.0604 138.962C59.5205 136.785 70.1561 130.303 79.3317 121.903C83.9793 117.654 88.3336 113.097 92.3658 108.267C118.486 77.3109 144.866 30.4887 167.284 -3.68173ZM189.234 -3.68173C162.957 35.3627 133.397 87.7333 103.054 123.407C99.379 127.737 95.4259 131.824 91.2185 135.644C85.4839 140.881 79.1236 145.548 72.033 148.815C54.3067 157.059 34.0786 154.881 15.9355 149.126C-7.265 141.97 -28.6927 130.303 -49.9639 118.792C-70.0363 107.903 -89.9515 96.2889 -111.901 89.4444C-122.953 86.0736 -135.101 84.9847 -146.206 88.6667C-154.548 91.3624 -161.69 96.9624 -167.738 103.133C-188.905 126.415 -203.659 154.829 -218.57 182.207L-216.224 183.4C-202.929 158.356 -189.478 133.207 -171.752 110.962C-169.98 108.785 -168.103 106.659 -166.174 104.637C-162.785 101.089 -159.028 97.9082 -154.965 95.1479C-142.192 86.7479 -126.655 87.0069 -112.422 91.259C-59.7135 106.503 15.7267 173.392 70.4689 150.578C78.0804 147.311 84.9107 142.437 91.0105 136.992C95.479 132.877 99.6918 128.497 103.627 123.874C133.917 87.8889 162.905 35.7257 189.234 -3.68173ZM211.182 -3.68173L171.351 57.6071C154.615 83.0667 138.818 109.2 119.372 132.74C111.656 142.126 103.314 151.148 93.2518 158.044C77.82 168.933 59.3117 171.162 41.0121 167.74C29.0213 165.511 17.3948 161.57 6.13355 157.007C-16.493 147.726 -37.7642 135.592 -59.5571 124.496C-75.9797 116.459 -92.7152 107.956 -110.962 104.792C-120.92 103.289 -131.504 104.067 -140.732 108.422C-146.362 111.118 -151.367 114.956 -155.799 119.259C-159.651 123.02 -163.24 127.039 -166.539 131.289C-187.132 157.94 -202.512 188.015 -218.57 217.467L-216.224 218.659C-200.375 189.259 -185.203 159.237 -164.818 132.637C-162.049 129.044 -159.09 125.6 -155.955 122.318C-151.211 117.548 -145.945 113.192 -139.845 110.237C-131.035 106.037 -120.92 105.207 -111.275 106.659C-93.236 109.718 -76.6054 118.015 -60.2867 125.948C-38.4422 136.94 -17.0662 149.022 5.6127 158.2C16.978 162.711 28.7084 166.651 40.8041 168.881C59.3641 172.251 78.1852 169.918 93.7734 158.77C103.887 151.77 112.229 142.644 119.946 133.207C139.288 109.562 155.032 83.3257 171.611 57.8146L211.182 -3.68173ZM233.235 -3.78543L169.161 94.1111C154.981 115.837 140.486 137.562 122.917 156.748C114.367 165.822 104.618 174.274 92.939 179.044C76.6728 185.785 58.3216 184.644 41.6378 180.185C32.9775 177.919 24.4636 175.131 16.1435 171.837C-14.9813 159.6 -43.4989 141.711 -74.6237 129.474C-91.464 122.837 -110.024 117.911 -127.645 124.756C-140.784 130.096 -150.533 141.089 -158.927 152.081C-178.634 178.059 -193.962 206.94 -209.342 235.562L-218.57 252.778L-216.224 253.97L-207.1 236.756C-191.877 208.185 -176.757 179.303 -157.259 153.326C-149.021 142.592 -139.689 131.807 -126.916 126.57C-109.868 119.829 -91.672 124.703 -75.2493 131.081C-44.1245 143.162 -15.5021 160.896 15.6743 173.029C24.0452 176.332 32.6116 179.119 41.325 181.378C58.2692 185.785 76.8292 186.822 93.3042 179.978C98.9661 177.53 104.292 174.376 109.154 170.592C124.585 158.459 136.368 142.489 147.838 126.778C159.308 111.067 169.578 94.2146 180.162 77.9847C187.408 66.6812 224.998 9.02199 233.235 -3.78543ZM255.081 -3.68173C239.909 19.3405 201.485 77.6738 186.679 100.074C171.873 122.474 156.492 146.429 138.193 167.118C133.644 172.3 128.712 177.135 123.438 181.585C117.495 186.459 110.874 190.762 103.679 193.615C102.532 194.133 99.9773 194.911 98.8308 195.326C96.4323 196 93.7734 196.726 91.3233 197.192C79.4881 199.578 67.1844 198.903 55.4015 196.362C45.2875 194.237 35.4339 190.867 25.8931 186.926C0.294897 176.244 -24.0005 162.867 -49.4423 151.822C-74.8849 140.778 -104.915 129.785 -129.158 148.815C-137.499 155.14 -144.277 163.281 -150.585 171.578C-176.914 206.681 -197.299 249.356 -218.57 287.829L-216.224 289.022C-195.317 250.703 -174.985 207.874 -148.917 172.822C-142.765 164.629 -136.144 156.592 -127.958 150.37C-104.497 131.756 -74.6237 142.956 -50.0679 153.326C-24.6785 164.267 -0.279106 177.54 25.3715 188.118C35.0171 192.059 44.9747 195.429 55.1935 197.556C67.0804 200.044 79.5405 200.667 91.5313 198.229C94.1003 197.701 96.6411 197.043 99.1436 196.259C100.499 195.792 102.741 195.067 104.044 194.496C111.343 191.644 118.016 187.237 124.012 182.259C129.303 177.774 134.253 172.904 138.818 167.689C157.066 146.844 172.081 123.511 187.096 100.333L255.081 -3.68173ZM277.029 -3.68173C260.868 20.6368 220.15 82.1333 204.353 105.829C188.556 129.526 172.759 154.985 153.573 177.074C128.287 206.889 103.627 218.607 64.4731 209.326C25.3199 200.044 -8.25584 179.667 -44.8025 165.303C-58.5663 160.118 -72.7468 155.089 -87.6578 155.192C-95.1622 155.234 -102.573 156.861 -109.398 159.962C-122.797 166.496 -132.703 178.267 -141.514 189.881C-154.704 207.459 -165.965 226.385 -176.705 245.518C-189.009 267.503 -206.318 299.911 -218.57 322.467L-216.224 323.711C-204.181 301.362 -186.872 268.592 -174.672 246.607C-164.088 227.526 -152.984 208.651 -139.845 191.126C-130.722 178.992 -120.451 166.6 -106.114 160.533C-100.227 158.254 -93.9743 157.06 -87.6578 157.007C-73.0596 156.8 -58.9315 161.778 -45.4281 166.807C-8.82907 181.067 25.6327 201.548 64.2127 210.467C103.731 219.696 128.808 207.822 154.199 177.644C173.332 155.451 188.66 130.407 204.769 106.089C220.879 81.7701 260.711 21.1553 277.029 -3.68173ZM298.978 -3.68173C270.356 38.7331 237.511 88.2513 209.097 130.926C194.343 153.378 180.892 177.074 162.071 196.518C156.747 202.06 150.898 207.078 144.605 211.503C97.5272 244.585 48.8324 216.326 3.05781 196.57C-14.5637 188.74 -32.3424 180.756 -51.0064 175.415C-62.216 172.2 -74.1029 170.437 -85.7809 172.459C-97.459 174.481 -107.938 180.859 -116.28 189.103C-123.944 196.518 -130.357 205.074 -136.613 213.681C-163.254 250.392 -195.578 316.607 -218.57 356.637L-216.224 357.829C-194.066 318.111 -161.012 251.481 -134.997 214.874C-128.845 206.318 -122.432 197.815 -114.925 190.451C-100.066 175.467 -83.3308 170.903 -62.6852 174.481C-32.7592 180.392 -4.29329 195.481 23.7034 207.2C64.0038 225.14 105.243 240.489 145.127 212.281C151.466 207.798 157.351 202.71 162.696 197.089C181.517 177.54 194.916 153.792 209.566 131.237C237.824 88.5111 270.512 38.8368 298.978 -3.68173ZM320.823 -3.68173C290.636 40.5998 255.863 92.8667 225.937 137.459C207.794 164.111 192.101 193.096 168.119 215.133C162.182 220.618 155.641 225.419 148.62 229.444C118.173 247.022 86.2659 241.111 55.0887 229.133C41.7942 224.103 23.5994 215.651 10.3049 209.948C-12.0096 200.459 -34.7925 189.985 -59.2959 187.756C-87.7618 185.681 -104.446 201.133 -120.66 222.289C-140.419 248.111 -155.903 276.733 -171.804 304.992C-187.706 333.251 -203.138 361.667 -218.57 390.133L-216.224 391.378C-200.896 362.859 -185.516 334.392 -169.771 306.081C-154.026 277.77 -138.698 249.251 -119.095 223.481C-103.194 202.689 -87.3974 187.6 -59.4007 189.467C-35.1577 191.592 -12.5304 201.962 9.73089 211.296C22.9738 216.948 41.2733 225.4 54.6195 230.326C86.1619 242.356 118.433 248.162 149.089 230.274C156.166 226.226 162.745 221.371 168.692 215.807C192.726 193.615 208.367 164.526 226.458 137.77C256.227 93.1257 290.793 40.7035 320.823 -3.68173ZM342.616 -3.68173C306.069 49.7257 264.621 111.378 228.7 165.044C205.969 199.37 181.465 239.348 139.235 251.067C105.608 259.985 71.6678 246.14 40.9605 233.333C25.6843 227.007 9.26166 219.54 -6.22256 213.785C-29.6835 205.074 -57.6278 197.089 -80.9847 210.362C-95.8949 219.074 -106.531 233.178 -116.593 246.815C-131.556 267.503 -144.173 289.644 -156.737 311.785C-177.539 348.444 -198.393 386.14 -218.57 423.007L-216.224 424.251C-196.204 387.281 -175.454 349.585 -154.808 312.874C-142.348 290.785 -129.835 268.592 -115.029 247.956C-105.071 234.474 -94.7485 220.526 -80.0463 211.918C-57.211 198.903 -29.8399 206.785 -6.74338 215.237C8.68844 220.889 25.1635 228.356 40.4389 234.629C71.4073 247.437 105.66 261.178 139.496 252.103C181.934 240.178 206.542 199.992 229.221 165.407C265.038 111.585 306.173 49.8812 342.616 -3.68173ZM364.356 -3.68173C324.107 54.5998 284.641 113.451 244.862 172.096C234.904 186.77 224.633 201.185 213.32 214.822C210.505 218.244 207.637 221.615 204.665 224.881C190.693 240.333 175.105 255.578 155.085 262.629C119.476 274.867 82.3034 259.674 49.1976 246.556C28.4996 238.415 8.1668 229.289 -13.3125 223.378C-35.6269 216.948 -58.4622 216.118 -77.6478 231.103C-91.8284 242.096 -102.256 256.874 -112.474 271.34C-122.693 285.807 -131.66 301.207 -140.523 316.556C-167.06 362.6 -192.919 409.007 -218.726 455.467L-216.432 456.711C-190.782 410.2 -165.079 363.689 -138.646 317.592C-129.835 302.296 -120.868 287.051 -110.858 272.429C-100.848 257.807 -90.4731 243.34 -76.553 232.503C-57.8882 217.829 -35.5221 218.711 -13.7301 224.881C8.0628 231.051 28.0304 239.815 48.676 247.851C82.0954 260.97 119.58 276.059 155.45 263.615C175.626 256.459 191.319 241.059 205.291 225.451C208.263 222.133 211.131 218.762 213.946 215.34C225.259 201.651 235.477 187.133 245.435 172.459C285.006 113.711 324.264 54.7553 364.356 -3.68173ZM385.993 -3.68173C367.797 22.7627 341.208 61.1331 323.378 87.4736C296.841 125.17 249.763 200.356 219.211 233.851C187.513 270.148 160.298 287.415 110.665 276.785C74.4831 268.748 41.2209 251.429 5.82074 240.851C-13.6253 234.94 -34.7925 230.896 -54.1869 239.14C-76.6054 248.681 -94.2793 275.385 -107.73 294.985C-147.092 357.362 -181.867 422.489 -218.518 486.474L-216.276 487.77C-189.218 439.548 -162.264 391.222 -134.632 343.362C-120.816 319.459 -107 295.451 -90.1603 273.518C-80.4107 260.97 -69.6711 248.37 -55.0729 241.422C-35.7309 232.348 -14.2509 236.444 5.35151 242.303C31.9406 250.289 57.3308 261.748 83.607 270.511C111.76 280 143.823 286.637 172.029 273.985C191.267 265.429 206.125 249.874 219.889 234.422C250.492 200.562 296.841 126 323.638 87.6812C341.365 61.2368 367.745 23.0738 385.993 -3.68173ZM407.628 -3.68173C370.352 49.7775 314.41 131.392 277.447 185.837C272.493 192.992 266.237 202.429 261.024 209.378C249.594 224.754 237.251 239.437 224.06 253.348C203.936 275.178 181.205 291.926 150.288 292.185C131.051 292.651 112.177 287.881 93.9822 282.074C66.5063 273.311 39.9697 261.644 12.077 254.229C-0.748325 250.859 -14.1469 248.422 -27.4414 250.133C-33.4959 250.864 -39.4026 252.507 -44.9589 255.007C-62.6852 263.407 -75.0413 279.378 -86.5106 294.57C-92.1936 302.296 -97.6678 310.281 -102.829 318.37C-138.438 375.356 -184.056 457.956 -218.518 516.962L-216.276 518.259C-182.336 459.667 -136.404 376.185 -101.161 319.407C-96.0514 311.37 -90.6295 303.385 -84.9989 295.711C-73.7377 280.674 -61.642 264.859 -44.2293 256.562C-38.8348 254.128 -33.1072 252.503 -27.2326 251.74C-15.3457 250.237 -3.35484 252 8.16683 254.851C37.3632 262.059 64.9423 274.296 93.5646 283.318C111.864 289.126 130.946 293.844 150.288 293.326C181.57 292.962 204.509 276.059 224.738 253.97C237.897 239.986 250.205 225.234 261.597 209.792C266.655 202.896 273.119 193.459 277.968 186.2C314.828 131.651 370.612 49.6738 407.628 -3.68173ZM429.004 -3.68173C370.612 76.6368 319.364 162.037 257.583 239.867C248.199 251.429 238.502 262.681 227.814 273.103C209.358 291.356 188.921 303.281 162.383 304.162C132.353 305.251 103.575 294.622 75.5263 285.185C45.5479 275.489 4.72589 257.651 -26.3466 266.985C-41.0487 271.133 -52.8832 281.607 -62.7368 292.807C-75.8233 307.896 -87.0322 324.385 -97.6154 341.237C-118.157 374.474 -138.698 409.992 -158.458 443.696C-178.217 477.4 -198.393 512.296 -218.518 546.518L-216.276 547.867C-181.293 488.029 -146.727 427.362 -111.379 367.733C-101.265 350.674 -91.0464 333.667 -79.5771 317.437C-67.325 300.689 -54.7085 282.903 -36.0961 272.689C-25.7209 267.244 -13.7301 265.378 -2.10361 266.051C14.6319 267.037 30.8457 271.962 46.7992 276.94C65.7243 283.111 84.4415 289.956 103.523 295.815C122.605 301.674 142.363 306.185 162.436 305.303C189.234 304.318 209.879 292.237 228.492 273.778C239.127 263.303 248.876 251.948 258.209 240.333C319.833 162.348 370.821 76.7923 429.004 -3.68173ZM450.745 -3.68173C399.235 67.0442 351.844 140.622 300.23 211.296C278.437 239.762 257.427 269.526 230.056 293.067C213.528 306.962 195.75 314.689 174.062 315.829C153.417 316.918 132.979 312.251 113.272 306.548C83.503 297.992 54.6195 286.17 24.0686 280.518C18.309 279.422 12.4657 278.815 6.60277 278.703C-3.77166 278.496 -14.4073 280.207 -23.8965 284.667C-29.1885 287.213 -34.1442 290.4 -38.6503 294.156C-41.654 296.65 -44.5257 299.297 -47.2526 302.089C-65.0829 320.807 -79.2119 342.689 -92.8192 364.467C-135.622 434.622 -176.914 506.178 -219.3 576.54L-217.058 577.837C-174.828 507.422 -133.745 435.711 -91.1511 365.503C-77.6478 343.726 -63.6236 322 -45.9497 303.333C-43.3049 300.565 -40.5029 297.951 -37.5554 295.503C-33.169 291.808 -28.3353 288.673 -23.166 286.17C-13.9381 281.815 -3.56364 280.103 6.60277 280.259C12.3749 280.407 18.1268 280.996 23.8075 282.022C54.3067 287.622 83.1902 299.34 112.907 307.792C132.771 313.496 153.312 318.111 174.114 316.97C196.011 315.778 214.05 307.896 230.681 293.844C258.052 270.148 279.011 240.281 300.803 211.659C352.209 140.881 399.391 67.1479 450.745 -3.68173ZM470.973 -3.68173C409.454 82.4444 351.531 171.94 287.196 256.096C262.536 289.644 231.463 324.281 186.888 326.874C165.616 328.481 144.501 324.126 124.064 318.578C103.627 313.029 83.3982 306.133 62.8574 300.481C55.1935 298.407 47.2684 296.489 39.4481 295.037C23.0778 291.822 5.5603 291.2 -10.1327 297.578C-18.8915 301.103 -26.607 306.807 -33.3848 313.237C-37.7525 317.374 -41.8613 321.772 -45.6885 326.407C-61.0688 344.762 -74.1029 364.933 -86.6154 385.207C-131.035 457.54 -173.942 530.703 -218.518 602.881L-216.276 604.229C-171.857 531.948 -129.158 458.629 -84.9465 386.244C-73.8941 368.2 -62.424 350.311 -49.3383 333.667C-44.3857 327.496 -39.2759 321.378 -33.6453 315.829C-27.0762 309.451 -19.7251 303.644 -11.3316 299.859C7.48958 291.562 27.5096 293.792 46.9556 298.096C67.7576 302.659 87.934 309.503 108.372 315.467C133.813 322.933 160.142 330.089 186.939 328.015C231.933 325.267 263.057 290.474 287.821 256.562C351.948 172.251 409.662 82.6 470.973 -3.68173ZM492.662 -3.68173C430.047 81.8222 372.802 171.215 307.946 255.111C283.338 288.296 256.071 325.837 213.372 335.481C181.934 342.689 149.767 334.496 119.424 326.096C98.8825 320.444 78.6544 313.911 57.7476 309.659C35.4339 304.94 11.5038 303.54 -8.62025 316.14C-14.3557 319.667 -19.5171 324.022 -24.3133 328.637C-33.8541 337.97 -42.0396 348.548 -49.9115 359.229C-62.424 376.392 -73.5813 394.489 -84.7385 412.481C-95.895 430.474 -123.318 475.326 -134.58 493.837C-156.685 529.978 -178.738 566.17 -201.209 602.103L-198.967 603.503C-154.965 532.881 -110.441 457.178 -66.1778 386.607C-57.6278 373.229 -48.6603 360.111 -38.8067 347.718C-30.6219 337.4 -21.8108 327.392 -11.0188 319.77C-9.50709 318.733 -7.57781 317.54 -6.06615 316.607L-4.34567 315.674L-3.45887 315.156L-2.57281 314.74L-0.799942 313.859C9.99209 308.985 22.0354 307.378 33.8698 307.948C41.7942 308.311 49.6669 309.659 57.4348 311.162C88.716 317.54 118.798 328.637 150.08 335.118C181.361 341.6 215.145 342.067 243.141 324.489C270.669 307.689 289.75 280.985 308.572 255.578C314.15 247.903 321.866 237.896 327.653 230.118C385.106 153.896 436.251 73.2664 492.662 -3.68173ZM514.193 -3.68173C450.536 81.0958 393.917 170.903 328.487 254.437C303.149 287.467 278.958 325.681 238.658 341.807C198.357 357.933 154.146 343.881 113.95 333.356C97.2668 328.896 80.5313 324.281 63.4306 321.533C55.5063 320.237 47.4772 319.303 39.4481 319.459C28.0828 319.667 16.5087 322 6.39473 327.289C-6.11777 333.874 -16.1802 344.089 -25.1993 354.77C-40.6319 373.074 -53.8217 393.089 -66.543 413.259C-106.114 476.051 -144.59 539.467 -184.317 602.103L-182.127 603.503C-142.556 540.711 -104.184 477.244 -64.8225 414.348C-52.8832 395.318 -40.5795 376.444 -26.2942 359.022C-16.8058 347.356 -6.22256 336 7.17676 328.844C16.5087 323.918 27.0404 321.637 37.5196 321.17C44.7925 320.945 52.0708 321.397 59.26 322.518C77.6636 325.111 95.5979 330.037 113.585 334.807C154.042 345.281 198.2 358.918 239.075 342.844C279.949 326.77 303.827 288.089 329.112 254.903C394.334 171.215 450.745 81.2513 514.193 -3.68173ZM535.777 -3.68173C467.95 84.6222 408.828 179.251 339.384 266.415C311.387 303.281 282.191 347.459 233.392 357C212.538 361.251 191.006 359.281 170.204 355.392C138.818 349.533 108.372 339.474 76.8292 334.392C66.2459 332.733 55.5063 331.696 44.8183 332.681C21.0445 334.756 5.45629 345.8 -10.1327 362.962C-17.2211 370.902 -23.9027 379.192 -30.1527 387.8C-78.4298 457.54 -120.92 531.118 -167.321 602.103L-165.131 603.503C-118.887 532.415 -76.6054 458.785 -28.5363 388.94C-22.28 380.437 -15.7633 372.089 -8.72505 364.207C6.55115 347.356 21.6702 336.467 44.9747 334.392C55.5063 333.356 66.0895 334.392 76.5687 336C108.11 340.978 138.558 350.985 169.943 356.74C190.902 360.629 212.642 362.548 233.653 358.192C282.66 348.496 312.064 304.111 340.061 266.933C409.297 179.562 468.21 84.8291 535.777 -3.68173ZM557.466 -3.68173C491.358 79.3333 435.677 170.022 369.726 253.192C356.745 269.681 343.763 287.103 330.938 303.644C311.595 328.326 288.968 352.903 258.417 363.274C208.054 380.281 152.009 357.726 101.803 348.807C86.0571 345.956 69.9473 343.518 53.9422 345.437C24.6943 348.703 6.75915 367.526 -10.7059 389.251C-24.0005 405.844 -35.7309 423.578 -47.2526 441.415C-81.7144 494.926 -115.602 548.748 -150.325 602.103L-148.083 603.503C-113.517 550.096 -79.7851 496.118 -45.4805 442.556C-34.0105 424.718 -22.384 406.985 -9.19427 390.444C-5.85734 386.348 -2.46881 382.251 1.02452 378.311C20.6793 356.067 39.7093 345.54 69.9473 346.526C136.107 349.533 209.931 391.274 273.537 358.037C311.647 337.556 334.535 299.185 360.655 266.259C383.281 236.911 406.117 207.356 427.492 177.178C470.034 116.303 511.482 54.6516 557.466 -3.68173ZM579.259 -3.68173C525.507 61.9109 478.533 133.156 429.108 201.962C407.681 231.156 383.177 261.489 361.072 290.215C328.122 333.77 296.528 376.807 236.729 379.089C199.348 380.696 163.009 369.859 126.619 362.859C100.968 358.037 73.597 352.696 48.2592 361.718C32.6186 367.267 20.0021 378.778 9.15766 390.962C-12.0096 414.97 -29.0579 441.985 -46.4706 468.689C-75.1977 512.867 -104.289 558.133 -133.224 602.103L-131.035 603.503C-102.204 559.481 -73.216 514.111 -44.5937 469.829C-24.3133 438.978 -5.02291 406.778 21.6702 380.903C34.0787 369.34 46.2783 362.496 63.1702 359.8C68.3957 358.986 73.6776 358.587 78.9672 358.607C132.249 359.956 183.134 382.926 236.833 380.437C296.998 378 328.748 334.756 361.801 290.785C383.855 262.007 408.306 231.57 429.63 202.326C478.898 133.415 525.663 62.0664 579.259 -3.68173ZM601.469 -3.68173C546.83 61.2887 498.97 132.015 449.754 201.081C431.82 225.918 410.392 252.674 391.467 276.837C371.447 301.467 353.564 328.378 330.938 350.674C315.87 365.503 297.884 377.844 277.342 383.651C225.884 398.118 171.142 377.689 119.737 370.844C98.622 367.837 76.3083 366.592 56.2359 374.992C41.2733 381.267 29.2817 392.778 18.6984 404.756C1.02452 424.718 -13.7301 446.962 -28.3798 469.103C-40.3707 487.356 -102.569 581.362 -116.071 602.051L-113.882 603.503C-100.64 583.385 -38.6503 488.651 -26.5554 470.296C-14.4597 451.94 -3.19844 434.829 9.99208 418.237C22.1918 403.148 35.7467 387.178 53.3682 378.362C73.8058 368.303 97.4748 369.444 119.476 372.556C151.175 377.015 182.247 385.207 214.05 388.733C235.269 391.067 257.114 391.015 277.76 384.896C298.405 378.778 316.6 366.489 331.72 351.503C354.346 329.051 372.177 302.14 392.144 277.407C411.122 253.14 432.445 226.281 450.276 201.496C499.282 132.274 546.986 61.4442 601.469 -3.68173ZM622.998 -3.68173C598.497 24.2664 575.247 53.4071 553.035 83.2222C549.228 88.3034 547.664 90.4812 543.598 96.0812C495.059 165.926 445.427 234.94 392.197 301.311C372.542 326.251 354.086 352.8 328.748 372.4C303.41 392 271.034 399.674 238.918 397.703C196.22 395.526 154.928 382.615 112.229 380.074C106.862 379.797 101.483 379.832 96.1195 380.178C90.0791 380.575 84.0911 381.547 78.2368 383.081C62.909 386.867 50.0321 395.837 38.9272 406.778C27.8224 417.718 17.5512 430.578 8.0628 443.437C-17.7442 479.267 -73.1644 564.148 -98.9191 602.051L-96.7294 603.503C-76.8658 573.896 -18.9431 485.956 0.502911 457.644C12.651 440.274 25.3715 423.162 40.3349 408.178C51.1785 397.444 63.7434 388.629 78.706 384.896C84.4555 383.38 90.3403 382.425 96.2759 382.044C101.55 381.656 106.844 381.603 112.125 381.889C154.772 384.326 196.167 397.133 238.866 399.156C271.294 401.074 303.827 393.97 329.478 373.333C354.868 353.629 373.375 326.926 392.979 301.881C446.053 235.407 495.529 166.185 543.858 96.2889C546.726 92.2445 550.219 87.5778 553.243 83.3778C575.404 53.5109 598.599 24.3182 622.998 -3.68173ZM645.521 -3.68173C587.65 59.059 539.479 129.526 490.211 198.956C462.058 237.585 432.445 275.437 402.832 313.029C380.101 341.911 357.787 373.592 324.889 391.74C286.779 412.896 241.317 407.556 199.973 400.97C159.464 395.111 115.67 380.956 76.3599 399.156C60.7717 406.622 48.4156 419.118 37.2584 431.926C3.37062 471.903 -50.6419 558.029 -81.662 602.051L-79.5247 603.503C-48.9731 560 5.14348 473.2 38.8224 433.274C49.8233 420.622 61.919 408.281 77.1944 400.918C116.087 382.874 159.568 396.926 199.713 402.578C241.369 409.111 287.196 414.296 325.515 392.881C358.569 374.526 380.883 342.74 403.614 313.651C433.175 275.956 462.683 238.051 490.732 199.318C539.844 129.785 587.807 59.2146 645.521 -3.68173ZM668.309 -3.68173C579.416 89.0291 513.881 200.096 433.331 299.496C413.781 323.503 394.126 351.556 372.281 373.385C357.266 388.37 339.644 401.178 319.364 407.97C278.333 421.659 234.33 413.518 192.622 407.451C149.819 400.296 105.087 391.74 69.0612 422.54C44.5579 443.489 26.3623 470.503 8.0628 496.637L-64.4057 602.051L-62.2676 603.556C-36.2526 566.896 19.5329 480.096 48.0504 446.703C81.4174 406.829 109.414 398.015 160.611 404.34C181.83 407.14 202.893 411.185 224.112 413.622C255.863 417.615 289.072 419.792 319.78 409.267C340.27 402.422 358.1 389.407 373.167 374.267C395.012 352.281 414.51 324.281 434.061 300.118C514.402 200.459 579.674 89.2368 668.309 -3.68173ZM691.301 -3.68173C631.186 57.296 579.783 126 530.825 196C499.96 239.607 467.272 281.867 434.009 323.711C390.059 379.556 358.882 424.2 280.47 423.733C248.303 423.681 216.448 418.392 184.645 413.933C158.213 410.303 130.164 408.229 104.826 418.444C58.9472 437.215 35.4863 485.178 7.90641 523.185C-4.18927 540.556 -34.5321 583.903 -47.0962 602.051L-44.9589 603.556C-32.5504 585.718 -2.36402 542.007 9.83566 524.533C37.0504 486.94 60.4065 438.874 105.556 420.259C130.529 410.2 158.213 412.17 184.437 415.696C216.24 420.051 248.199 425.289 280.47 425.289C359.404 425.496 390.736 380.8 434.843 324.333C468.001 282.437 500.586 240.074 531.346 196.362C580.143 126.259 631.342 57.4516 691.301 -3.68173ZM714.652 -3.68173C668.724 41.3257 627.221 90.6889 588.855 142.178C544.745 202.792 501.941 264.34 454.707 322.57C411.643 375.822 380.518 427.156 304.818 431.2C272.65 433.17 240.482 428.711 208.628 424.77C182.039 421.348 154.511 417.874 128.183 424.822C79.3317 437.733 52.9514 484.918 25.8407 523.34C13.6934 540.659 -17.0146 583.956 -29.7351 602.051L-27.5978 603.556C-15.0329 585.77 15.5179 542.111 27.8224 524.689C54.6195 486.578 80.3749 439.703 128.704 426.74C154.772 419.792 182.039 423.215 208.367 426.533C240.378 430.422 272.598 434.829 304.922 432.756C381.092 428.451 412.321 377.015 455.541 323.244C502.672 264.859 545.318 203.156 589.214 142.437C627.487 90.8444 668.825 41.4294 714.652 -3.68173ZM738.481 -3.68173C707.301 25.6146 677.897 57.6071 650.635 90.4812C609.446 140 571.752 192.422 534.109 244.585C502.672 288.089 468.94 329.881 435.156 371.57C395.429 419.637 360.55 440.015 296.841 439.496C275.361 439.289 253.881 437.162 232.506 434.933C211.13 432.703 189.598 429.489 167.962 430.474C99.1953 432.548 69.9473 487.096 34.5479 536.562C27.6136 546.103 -4.34568 591.111 -12.3224 602.051L-10.1843 603.556C-2.05119 592.251 28.6044 548.956 36.5288 537.962C64.0563 500.059 89.0288 453.133 136.525 437.837C167.597 428.037 200.599 433.326 232.297 436.696C253.777 438.874 275.257 440.948 296.841 441.103C360.968 441.467 396.211 420.881 436.094 372.348C469.774 330.556 503.454 288.659 534.787 245.103C572.276 192.785 609.813 140.311 650.893 90.6889C678.053 57.7109 707.411 25.6664 738.481 -3.68173ZM762.466 -3.68173C681.447 67.822 617.266 155.4 554.494 242.562C529.521 277.615 503.141 311.733 476.187 345.281C462.84 361.77 449.389 379.4 434.791 394.8C383.229 451.215 327.392 450.229 256.332 444.267C224.112 441.778 191.319 435.815 159.204 442.451C109.101 452.096 79.6969 497.985 52.5346 536.667C45.3915 546.518 13.2766 591.007 5.14348 602.051L7.28077 603.556L54.4631 538.067C78.8108 503.896 103.001 464.333 144.24 448.881C169.63 439.392 197.314 440.689 223.903 443.074C286.675 448.415 358.986 460.133 411.904 417.615C433.279 400.97 450.223 379.659 467.011 358.607C497.302 320.859 527.175 282.54 555.172 243.081C617.735 155.711 681.65 67.9776 762.466 -3.68173ZM787.068 -3.68173C729.151 45.1109 678.577 102.044 632.179 161.674C585.773 221.303 544.901 285.133 497.145 343.881C469.983 376.859 444.853 413.933 406.742 435.244C387.765 445.667 366.389 450.903 344.962 452.926C312.586 455.881 280.001 452.978 247.73 450.489C215.457 448 181.517 444.94 151.018 458.007C110.144 475.585 86.2135 515.511 61.0321 549.785L22.661 602.051L24.7459 603.556C38.666 584.681 68.488 543.718 81.8342 524.896C107.485 489.067 136.472 456.918 182.873 451.629C209.774 448.103 236.885 451.733 263.787 453.6C290.689 455.467 318.06 457.229 345.118 454.585C366.755 452.459 388.339 447.067 407.42 436.54C445.687 415.022 470.869 377.74 498.031 344.556C545.631 285.703 587.079 222.34 632.648 162.037C678.21 101.733 729.253 45.2664 787.068 -3.68173ZM789.993 14.622C726.179 69.9479 670.546 134.244 620.863 202.326C580.925 257.962 541.668 314.17 498.24 367.267C481.713 387.644 465.186 408.437 444.801 425.237C428.702 438.867 409.725 448.721 389.277 454.067C353.408 463.659 315.766 461.378 279.062 459.562C252.63 458.111 226.145 454.844 199.66 457.748C133.709 463.815 104.253 516.185 68.5396 563.94C62.127 572.548 46.9556 592.978 40.1785 602L42.3158 603.556C49.0413 594.533 63.7958 574.467 70.5213 565.444C105.713 518.259 134.752 465.837 199.921 459.77C226.197 456.815 252.63 460.029 278.958 461.378C315.87 463.14 353.617 465.267 389.694 455.518C410.321 450.081 429.456 440.104 445.687 426.326C466.073 409.37 482.599 388.526 499.178 367.992C542.451 314.792 581.551 258.481 621.387 202.689C670.859 134.503 726.336 70.1034 789.993 14.622ZM790.462 34.9998C744.369 75.9109 702.977 121.748 664.399 169.711C638.795 201.756 615.702 235.667 591.826 269.007C567.945 302.348 543.754 335.481 518.051 367.422C498.709 391.17 479.68 415.8 455.281 434.674C409.818 470.918 348.299 469.207 293.087 466.874C257.27 465.526 220.254 460.548 185.48 471.8C139.809 486.318 112.751 528.837 85.5879 565.185C79.2801 573.481 64.4215 593.289 57.8 602L59.8857 603.556L87.5696 566.637C114.419 530.6 140.956 488.34 186.106 473.77C220.619 462.57 257.427 467.496 293.035 468.74C348.559 470.918 410.548 472.37 456.114 435.762C480.566 416.733 499.595 392.051 518.938 368.148C544.589 336.103 568.57 302.815 592.499 269.474C616.429 236.133 639.319 202.118 664.813 169.97C703.235 121.956 744.526 76.0146 790.462 34.9998ZM790.462 55.7405C746.403 96.1847 706.316 140.829 669.248 187.703C644.793 219.178 622.584 252.311 599.224 284.562C575.873 316.815 552.044 348.756 527.54 380.126C509.188 403.562 489.846 426.792 465.342 444.059C419.672 476.674 360.602 475.274 306.799 473.874C271.973 473.044 236.207 468.844 202.163 478.696C152.061 492.696 123.334 539.518 93.5646 578.251L75.4215 602L77.5072 603.607L95.5979 579.807C125.055 541.333 153.208 494.77 202.736 480.77C236.52 470.867 272.129 474.962 306.746 475.74C360.863 476.985 420.297 478.126 466.124 445.2C490.732 427.778 510.127 404.392 528.479 380.851C552.878 349.378 576.6 317.333 599.905 285.029C623.209 252.726 645.263 219.54 669.607 188.015C706.519 141.037 746.512 96.2889 790.462 55.7405ZM790.72 76.222C755.474 109.407 722.895 145.289 692.184 182.622C649.853 235.459 613.669 292.859 572.221 346.422C560.594 361.822 548.916 377.274 536.925 392.415C518.99 415.022 499.595 437.111 475.144 452.926C450.692 468.74 421.81 476.103 393.083 478.851C364.356 481.6 334.848 480.822 305.913 480.251C276.978 479.681 247.208 478.022 218.794 485.489C179.64 495.081 151.904 525.103 128.443 555.956C118.016 569.696 103.94 588.051 93.1478 602L95.2335 603.607C105.921 589.815 119.841 571.251 130.373 557.459C153.468 526.97 180.683 497.103 219.315 487.562C247.468 480.044 276.978 481.444 305.86 482.118C334.743 482.792 364.304 483.311 393.239 480.459C422.174 477.607 451.371 470.192 475.926 454.118C500.482 438.044 519.876 415.903 537.863 393.14C549.802 377.896 561.428 362.496 573.003 346.992C614.294 293.326 650.322 235.874 692.497 182.881C723.098 145.444 755.584 109.511 790.72 76.222ZM790.462 97.118C756.624 129.578 724.349 163.851 696.509 201.6C657.306 253.97 619.925 308.311 580.299 360.422C551.887 396.978 525.298 437.629 484.529 461.792C439.066 487.77 384.637 486.733 333.753 486.94C310.24 486.94 286.622 485.644 263.161 487.718C195.854 492.696 166.137 529.77 128.183 579.807C122.5 587.274 116.661 594.585 110.926 602L112.959 603.607C124.585 588.881 135.743 573.792 147.317 559.118C170.569 529.459 197.68 502.859 235.686 494.2C263.057 487.459 291.575 488.392 319.624 488.703C357.162 488.703 395.272 489.585 432.289 482.274C448.45 479.007 464.352 473.926 479.054 466.407C514.923 447.689 540.157 414.867 564.139 383.444C592.397 346.37 620.292 308.103 647.351 270.096C669.138 239.659 690.722 208.962 713.98 179.562C737.229 150.162 763.56 123.251 790.462 97.118ZM790.408 117.703C737.073 167.844 695.837 227.681 653.083 286.533C620.918 330.451 589.168 374.733 555.015 417.2C537.758 437.992 518.156 457.696 493.808 470.192C485.701 474.244 477.28 477.642 468.627 480.356C451.266 485.8 433.227 488.807 415.188 490.467C378.954 493.681 342.303 492.851 305.964 493.162C224.581 493.578 193.352 517.948 145.491 580.585C140.799 586.703 133.397 596.089 128.704 602L130.789 603.607C135.325 597.851 143.145 587.844 147.525 582.089C184.854 533.4 213.997 501.77 278.802 496.481C301.481 494.407 324.264 495.185 346.995 494.926C383.334 494.251 420.35 494.148 455.854 485.437C469.213 482.265 482.16 477.567 494.434 471.437C518.886 458.785 538.593 438.926 555.901 417.926C589.95 375.356 621.591 330.97 653.607 286.896C696.196 227.94 737.23 168 790.408 117.703ZM790.462 138.237C770.388 158.562 751.204 179.874 733.687 202.481C686.812 263.562 642.862 326.822 596.307 388.059C575.036 415.8 554.337 445.148 525.351 465.474C512.838 474.289 498.5 480.615 483.851 485.178L479.158 486.629C476.134 487.407 470.973 488.859 467.95 489.481C464.925 490.103 461.328 490.985 458.304 491.556C456.427 491.867 453.612 492.437 451.787 492.696C421.34 497.726 390.32 498.14 359.508 498.918C297.988 499.851 245.175 496.222 197.523 542.37C178.285 560.57 162.54 582.14 146.013 602.674L148.099 604.333C164.521 583.696 180.006 562.281 199.191 544.081C246.113 498.244 298.666 501.874 359.56 500.733C390.424 499.851 421.549 499.385 452.048 494.251L458.565 493.007C461.641 492.489 465.291 491.659 468.314 490.933C471.338 490.207 476.552 488.807 479.575 488.029L484.32 486.526C487.865 485.489 491.827 483.985 495.268 482.74C514.559 475.585 531.867 463.867 546.466 449.607C565.599 431.251 581.136 409.681 597.089 388.681C643.44 327.237 687.234 263.874 733.89 202.637C751.306 179.978 770.442 158.615 790.462 138.237ZM790.462 159.029C775.862 174.481 761.887 190.503 748.749 207.2C694.061 277.667 643.487 351.244 588.902 421.762C570.188 445.822 549.02 469.726 520.397 481.962C513.567 484.864 506.588 487.408 499.491 489.585C497.718 490.103 495.112 490.933 493.339 491.348C454.29 502.081 413.364 503.015 373.063 504.518C315.505 505.918 261.128 503.429 215.405 544.756C196.167 561.659 180.422 582.14 164.469 602L166.555 603.607C182.403 583.696 197.888 563.422 217.022 546.518C258.365 508.874 307.372 507.733 360.342 506.696C377.39 506.281 394.439 505.556 411.487 504.622C439.118 503.067 466.959 500.215 493.757 492.748C495.529 492.281 498.136 491.451 499.908 490.933C507.051 488.756 514.037 486.059 520.971 483.207C549.698 470.762 571.024 446.651 589.738 422.437C644.113 351.711 694.429 277.978 748.905 207.303C761.996 190.556 775.917 174.533 790.462 159.029ZM790.462 180.289C768.456 204.659 748.702 230.896 728.995 257.081C689.737 309.659 651.675 363.118 612.003 415.333C592.397 441.207 571.853 468.17 542.503 483.57C538.071 485.956 533.223 487.874 528.479 489.792C526.81 490.518 521.492 492.281 519.824 492.903C505.331 497.778 490.054 501.044 474.935 503.326C468.158 504.259 460.286 505.296 453.508 505.867C418.682 509.081 383.751 509.756 348.768 511.156C316.027 512.607 281.93 516.859 253.151 533.607C224.373 550.356 203.049 576.592 182.456 602L184.489 603.607C194.759 590.851 205.082 578.096 216.396 566.326C241.108 540.711 264.934 525.933 300.021 518.674C332.293 511.985 365.451 512.97 398.192 511.103C414.667 510.274 431.089 509.496 447.512 508.096C456.532 507.318 466.177 506.178 475.144 504.829C498.553 501.2 521.857 495.392 543.129 484.711C572.588 469.156 593.234 441.985 612.785 415.956C652.301 363.533 690.151 309.97 729.253 257.289C748.858 231 768.511 204.711 790.462 180.289ZM790.462 202.067C729.98 275.178 677.068 354.096 619.354 429.333C605.066 448.051 589.793 466.615 570.399 480.356C551.001 494.096 527.436 500.37 504.183 504.415C473.006 510.015 441.361 512.503 409.714 514.422C373.637 516.6 336.881 515.77 301.741 525.415C293.563 527.664 285.578 530.56 277.864 534.074C267.9 538.717 258.492 544.457 249.814 551.185C230.942 565.807 215.249 584.111 200.182 602.362L202.163 604.022C217.178 585.77 232.558 567.674 251.274 553.051C259.773 546.379 269.009 540.69 278.802 536.096C285.955 532.823 293.345 530.084 300.908 527.903C320.875 522.148 341.573 519.918 362.323 518.622C401.894 516.6 441.621 515.044 480.931 509.6C504.444 506.074 528.374 502.6 550.376 493.162C572.377 483.726 590.208 466.718 605.434 448.57C669.294 368.044 724.975 281.348 790.462 202.067ZM790.462 224.467C733.734 294.467 681.651 371.362 626.807 442.867C615.076 457.696 602.462 472.007 587.181 483.311C571.908 494.615 554.025 501.718 535.517 505.556C498.24 512.918 460.233 516.548 422.383 519.244C388.234 521.526 353.564 521.474 320.197 530.029C309.092 532.881 298.144 536.667 287.874 541.8C260.346 555.489 238.814 578.303 219.211 601.378L221.192 603.037C235.79 585.718 251.171 568.867 269.626 555.54C281.871 546.695 295.459 539.851 309.874 535.267C313.264 534.126 317.278 532.985 320.719 532.051C353.929 523.496 388.443 523.392 422.487 521.007C460.442 518.156 498.449 514.422 535.777 506.903C554.442 502.962 572.69 495.911 587.916 484.244C603.135 472.578 615.858 458.37 627.534 443.489C682.175 371.726 734 294.674 790.462 224.467ZM790.462 246.451C743.744 305.874 692.599 378.933 647.139 439.496C613.981 483.362 588.018 505.97 531.763 513.696C484.685 520.437 437.346 523.911 389.903 526.918C353.564 529.77 315.87 536.148 285.319 557.2C267.019 569.54 251.535 585.511 237.146 601.948L239.075 603.607C248.616 592.667 258.522 581.985 269.47 572.444C315.505 530.185 374.992 529.822 433.801 525.726C470.243 522.718 506.738 519.296 542.816 513.229C597.817 503.326 622.842 474.029 654.334 431.2C696.931 373.644 746.559 302.762 790.462 246.451ZM790.462 268.592C753.441 317.022 708.764 379.4 672.477 428.659C652.457 455.726 631.913 484.348 601.836 500.992C591.873 506.385 581.191 510.326 570.242 513.281C559.291 516.237 546.257 518.311 534.213 519.867C512.264 522.822 488.49 524.844 466.333 526.815C404.344 532.622 335.943 529.77 285.893 572.703C275.048 581.622 265.142 591.629 255.758 601.948L257.583 603.607C276.143 583.074 296.893 563.681 322.492 552.274C361.019 535.007 403.979 533.556 445.531 530.237C474.831 527.696 505.278 525.156 534.422 521.267C557.831 518.207 581.551 513.437 602.407 501.978C617.008 493.889 629.622 482.637 640.782 470.348C654.749 454.844 666.948 437.422 679.203 420.622C712.885 374.526 756.209 313.703 790.462 268.592ZM790.462 290.94C763.295 327.237 722.785 382.874 695.837 419.948C680.243 441.051 664.813 463.867 645.99 482.274C625.868 502.289 604.073 513.126 576.499 519.348C563.461 522.356 550.219 524.118 536.976 525.674C510.387 528.526 483.694 530.444 457.053 532.881C412.269 536.511 365.451 539 325.151 560.829C306.017 571.407 289.542 586.185 274.631 601.948L276.403 603.659C317.904 558.185 357.109 544.496 417.222 538.17C443.811 535.474 470.556 533.503 497.145 530.911C523.734 528.318 550.636 526.451 576.811 520.54C604.542 514.162 626.439 503.17 646.616 482.948C665.494 464.385 680.712 441.57 696.353 420.311C723.255 383.289 763.506 327.029 790.462 290.94ZM789.211 314.948C754.121 361.77 712.728 421.711 676.7 467.911C649.642 501.044 623.78 517.015 581.605 525.467C553.608 531.067 524.881 531.844 496.467 534.489C474.466 536.718 451.996 538.222 430.047 540.762C398.557 544.444 366.546 550.874 338.549 566.429C321.866 575.867 307.164 588.415 293.713 601.948L295.485 603.659C308.728 590.178 323.169 577.733 339.644 568.348C367.328 552.844 399.026 546.362 430.256 542.578C452.153 539.933 474.675 538.326 496.624 536.044C525.089 533.296 553.764 532.362 581.863 526.659C624.203 517.948 650.213 501.822 677.326 468.378C713.143 422.022 754.278 361.874 789.211 314.948ZM790.462 335.481C766.845 367.681 739.576 405.585 716.06 437.94C679.672 489.067 654.178 519.503 588.8 530.133C563.409 534.437 537.654 535.37 512.056 537.962C477.647 541.748 442.299 543.459 408.41 551.029C369.048 559.896 342.355 573.792 313.315 601.792L314.932 603.503C323.638 595.156 332.762 587.326 342.668 580.481C348.825 576.196 355.29 572.367 362.01 569.022L366.024 567.051L374.366 563.526C419.464 545.637 469.044 544.6 516.748 539C561.115 534.644 608.296 534.229 647.867 511.207C677.17 493.837 697.033 465.318 716.482 438.251C739.834 405.792 767.001 367.733 790.462 335.481ZM791.87 355.548L731.388 439.289C717.991 457.903 704.642 476.726 688.173 492.8C686.812 493.992 684.888 495.911 683.426 497.207L678.577 501.407C676.599 502.962 673.83 505.244 671.797 506.696C630.302 536.667 576.811 539.103 527.384 542.162C498.553 543.77 469.93 547.503 441.517 552.429C418.786 556.318 395.95 561.659 375.201 571.978C359.664 579.756 345.64 590.281 332.815 601.948L334.43 603.659C347.048 592.096 360.811 581.622 376.191 573.896C396.68 563.526 419.307 558.185 441.83 554.244C470.191 549.215 498.709 545.326 527.436 543.615C575.717 540.451 627.487 537.756 668.778 509.859L674.041 506.074L679.101 502.029C680.868 500.422 683.84 497.933 685.514 496.274C695 487.459 703.446 477.556 711.368 467.34C735.196 435.762 768.198 388.007 791.87 355.548ZM790.462 379.244C783.213 389.303 750 435.762 743.329 444.992C733.945 458.162 724.459 471.333 713.769 483.467C700.998 498.192 686.085 511.311 668.622 520.229C647.554 531.118 624.359 536.926 601 540.451C558.144 546.622 514.61 546.778 471.807 553.829C439.744 558.756 406.951 565.34 379.058 582.607C369.798 588.327 361.026 594.795 352.835 601.948L354.346 603.659C358.413 600.133 362.583 596.762 366.911 593.548C397.462 569.8 434.53 561.348 472.068 555.54C514.819 548.281 558.3 547.97 601.211 541.592C624.617 537.962 647.922 532 668.982 521.007C686.499 511.933 701.467 498.659 714.238 483.881C724.873 471.592 734.258 458.422 743.642 445.2C750.055 436.074 783.213 389.615 790.462 379.244ZM790.462 400.97C777.84 418.392 750.156 458.474 737.073 474.911C732.592 480.562 727.743 486.215 722.84 491.503C706.73 508.822 688.329 521.94 666.166 530.444C628.058 545.274 586.712 547.4 546.413 550.978C498.396 554.97 448.712 558.756 405.074 580.74C393.708 586.6 383.125 593.859 373.219 601.896L374.679 603.659C384.389 595.593 394.906 588.539 406.064 582.607C449.337 560.57 498.813 556.629 546.517 552.378C586.868 548.644 628.371 546.259 666.479 531.222C688.689 522.615 707.145 509.34 723.208 491.867C728.103 486.578 732.952 480.874 737.386 475.17C750.422 458.629 777.739 418.807 790.462 400.97ZM790.462 422.592C768.511 452.718 748.233 486.837 718.93 510.585C681.338 540.815 631.499 547.451 584.89 552.326C542.347 557.044 499.022 558.392 457.678 570.267C454.446 571.148 450.64 572.444 447.408 573.481C446.365 573.792 445.114 574.259 444.071 574.674C442.194 575.348 439.118 576.437 437.346 577.162C421.705 583.178 407.055 591.733 393.865 601.896L395.221 603.659C406.43 595.051 418.525 587.378 431.507 581.778C434.113 580.689 438.649 578.667 441.36 577.733C444.071 576.8 445.896 575.97 448.034 575.296C451.214 574.259 455.019 572.962 458.2 572.081C499.387 560.051 542.607 558.444 584.991 553.57C631.757 548.437 681.76 541.54 719.298 511C748.491 487.044 768.612 452.926 790.462 422.592ZM790.462 444.162C768.042 476.362 744.526 510.533 708.349 528.474C680.712 542.629 649.853 548.696 619.299 552.948C582.129 558.237 544.327 560.259 507.259 566.326C501.316 567.311 495.216 568.556 489.272 569.8L481.192 571.77C478.116 572.548 474.623 573.585 471.547 574.415L463.622 576.956L455.801 579.807C452.882 580.896 449.441 582.4 446.522 583.54C435.365 588.559 424.761 594.711 414.875 601.896L416.179 603.659C425.034 597.168 434.476 591.509 444.384 586.756C445.844 586.029 448.92 584.733 450.432 584.111C454.446 582.348 460.077 580.222 464.247 578.77L472.12 576.229L480.044 573.948C508.354 566.378 537.654 563.526 566.746 560.415C610.486 555.229 655.585 551.859 696.619 534.696C740.412 516.911 764.812 481.548 790.462 444.162ZM790.462 465.474C773.93 488.548 755.318 511.103 730.559 525.622C687.86 550.667 637.286 555.178 589.113 561.4C563.827 564.303 538.02 566.481 513.099 571.459C508.354 572.392 502.828 573.689 498.084 574.829L489.168 577.267L480.357 580.067C477.125 581.259 471.964 583.022 468.888 584.422C457.443 589.066 446.536 594.925 436.355 601.896L437.607 603.659C445.966 597.9 454.809 592.868 464.039 588.622L472.433 585.044L475.301 583.956L480.983 581.829L489.69 579.029L495.581 577.37C501.264 575.815 507.677 574.362 513.411 573.17C538.28 568.037 564.035 565.703 589.269 562.696C637.497 556.215 688.173 551.34 730.762 526.037C755.529 511.311 774.087 488.651 790.462 465.474ZM790.462 485.229C772.053 508.978 748.076 528.422 719.868 539.259C691.661 550.096 662.053 555.8 632.383 560.259C617.54 562.54 602.634 564.528 587.65 566.222C561.585 569.281 535.152 572.237 509.762 579.289C504.287 580.792 498.866 582.503 493.548 584.474C492.088 584.992 489.638 585.822 488.23 586.444C477.673 590.613 467.547 595.788 457.991 601.896L459.191 603.711C465.447 599.636 471.961 595.964 478.689 592.718C482.495 590.903 486.406 589.348 490.263 587.689L491.567 587.222L498.188 584.785C502.15 583.489 506.164 582.14 510.231 581.051C535.517 573.844 561.793 570.785 587.862 567.518C602.775 565.756 617.665 563.681 632.539 561.296C662.256 556.681 692.184 551.237 720.08 539.726C747.967 528.215 772.21 509.081 790.462 485.229ZM790.462 502.133C764.913 529.562 732.068 543.667 696.196 552.689C650.893 563.681 604.386 568.4 558.456 576.281C544.849 578.562 531.242 581.156 517.947 585.096C511.274 587.057 504.743 589.465 498.396 592.303C492.066 595.149 485.904 598.352 479.94 601.896L481.035 603.711C486.903 600.141 492.979 596.92 499.231 594.067C505.467 591.221 511.895 588.813 518.469 586.859C531.607 582.815 545.162 580.222 558.769 577.785C604.597 569.644 651.151 564.667 696.353 553.311C732.279 544.133 765.015 529.77 790.462 502.133ZM790.196 516.133C782.931 522.197 775.095 527.546 766.79 532.103C753.128 539.829 738.27 545.689 723.255 550.303C699.066 557.718 674.143 562.229 649.274 566.637C610.486 573.429 570.712 576.8 532.962 588.933C525.559 591.422 517.843 594.17 510.752 597.489C507.885 598.785 505.018 600.237 502.254 601.689L503.245 603.503C505.956 602 508.772 600.6 511.587 599.251C518.573 595.985 526.289 593.185 533.535 590.644C571.126 578.303 610.697 574.726 649.486 567.622C675.081 562.903 700.842 558.133 725.655 550.096C739.834 545.429 753.91 539.726 766.892 532.259C775.174 527.658 782.978 522.257 790.196 516.133ZM792.073 525.57C761.731 545.792 725.968 555.592 690.566 563.111C686.765 563.94 681.604 565.029 677.795 565.756C635.151 574.829 591.146 578.096 549.645 591.992C541.356 594.896 533.171 598.007 525.298 601.896L526.237 603.711C528.792 602.415 531.398 601.17 534.057 600.029C539.375 597.748 544.745 595.622 550.219 593.703C591.514 579.548 635.464 575.97 677.952 566.637L690.722 563.889C726.07 556.111 761.84 546 792.073 525.57ZM790.462 535.059C755.842 553.622 716.998 561.97 678.788 569.956C645.575 576.851 611.69 581.051 579.048 590.696C568.977 593.646 559.103 597.231 549.489 601.429L550.323 603.192C559.838 598.984 569.607 595.364 579.572 592.356C612.05 582.451 645.833 578.044 678.992 570.889C717.155 562.54 755.943 553.881 790.462 535.059ZM790.509 541.903C773.305 549.837 755.216 555.748 736.862 560.726C718.515 565.703 700.06 569.903 681.494 573.792C644.324 581.415 606.372 587.118 571.181 601.896L571.908 603.659C606.841 588.674 644.692 582.659 681.705 574.726C700.263 570.681 718.719 566.222 737.018 561.192C755.318 556.162 773.359 549.992 790.509 541.903ZM789.571 548.229C761.996 559.222 733.007 566.222 704.173 573.17L691.77 575.918C666.901 581.311 641.72 586.081 617.368 593.496C609.234 595.985 601.211 598.733 593.281 601.896L594.016 603.659C601.836 600.444 609.79 597.575 617.891 595.051C642.134 587.429 667.16 582.503 691.973 576.851C695.055 576.126 701.256 574.726 704.329 573.948C733.163 566.74 762.098 559.481 789.571 548.229ZM789.571 553.259C761.058 563.37 731.654 570.889 702.194 577.837C672.735 584.785 642.917 590.851 614.607 601.948L615.334 603.659C643.386 592.303 673.048 585.874 702.406 578.77C731.755 571.667 761.16 563.681 789.571 553.259ZM790.822 557.303C765.281 565.911 739.208 573.067 712.987 579.496C686.765 585.926 660.379 592.148 635.151 601.948L635.824 603.607C660.849 593.6 687.125 587.118 713.245 580.378C739.364 573.637 765.328 566.17 790.822 557.303ZM790.462 561.556C768.096 568.918 745.417 575.451 722.582 581.362C699.747 587.274 676.857 593.34 654.803 601.844L655.484 603.503C677.326 594.74 700.106 588.467 722.785 582.192C745.464 575.918 768.143 569.229 790.462 561.556ZM790.462 565.651C751.721 578.874 711.211 587.118 673.001 602L673.674 603.607C711.579 588.207 751.986 579.392 790.462 565.651ZM790.462 569.696C757.773 580.689 722.473 589.037 690.519 602L691.144 603.607C722.84 590.126 758.032 581.207 790.462 569.696ZM790.462 573.74C762.567 582.867 734.203 590.696 707.098 602L707.723 603.556C734.571 591.733 762.825 583.385 790.462 573.74ZM790.462 577.681C767.729 585.251 744.839 592.511 722.785 602.051L723.466 603.556C745.206 593.548 767.94 585.77 790.462 577.681ZM790.462 581.829C772.679 588 754.958 594.326 737.753 602.051L738.426 603.503C755.318 595.311 772.89 588.467 790.462 581.829ZM790.462 586.237C777.481 591.059 764.601 596.192 751.986 602.103L752.714 603.503C765.015 597.178 777.684 591.578 790.462 586.237ZM790.462 591.162C782.173 594.533 773.93 598.111 765.797 602.051L766.532 603.4C774.353 599.044 782.376 595 790.462 591.162ZM790.462 596.867L778.779 602.156L779.514 603.451L790.462 596.867Z" fill="url(#paint1_linear_1_18)"/>
</g>
</g>
</g>
</g>
<rect x="0.5" y="0.5" width="577" height="557" rx="11.5" stroke="#D1D5DB"/>
<defs>
<linearGradient id="paint0_linear_1_18" x1="287.606" y1="-144.299" x2="287.606" y2="1190.67" gradientUnits="userSpaceOnUse">
<stop stop-color="white"/>
<stop offset="0.15" stop-color="#FCFEFF" stop-opacity="0.99"/>
<stop offset="0.27" stop-color="#F4F9FD" stop-opacity="0.96"/>
<stop offset="0.38" stop-color="#E5F1FB" stop-opacity="0.92"/>
<stop offset="0.49" stop-color="#D1E6F9" stop-opacity="0.86"/>
<stop offset="0.59" stop-color="#B6D8F5" stop-opacity="0.77"/>
<stop offset="0.69" stop-color="#96C7F1" stop-opacity="0.67"/>
<stop offset="0.79" stop-color="#6FB3EC" stop-opacity="0.55"/>
<stop offset="0.89" stop-color="#449CE6" stop-opacity="0.42"/>
<stop offset="0.9" stop-color="#3F99E5" stop-opacity="0.4"/>
</linearGradient>
<linearGradient id="paint1_linear_1_18" x1="285.861" y1="604.307" x2="285.861" y2="-57.3121" gradientUnits="userSpaceOnUse">
<stop stop-color="white" stop-opacity="0.5"/>
<stop offset="0.14" stop-color="#F6FAFE" stop-opacity="0.48"/>
<stop offset="0.34" stop-color="#DCECFA" stop-opacity="0.41"/>
<stop offset="0.56" stop-color="#B1D5F4" stop-opacity="0.3"/>
<stop offset="0.81" stop-color="#75B6EC" stop-opacity="0.14"/>
<stop offset="1" stop-color="#3F99E5" stop-opacity="0"/>
</linearGradient>
<clipPath id="clip0_1_18">
<rect width="578" height="558" rx="12" fill="white"/>
</clipPath>
<clipPath id="clip1_1_18">
<rect width="1001" height="560" fill="white" transform="translate(-212)"/>
</clipPath>
</defs>
</svg>